<svg width="713" height="115" viewBox="0 0 713 115" fill="none" xmlns="http://www.w3.org/2000/svg">
<path d="M57.8242 114.939C46.3034 114.939 36.2337 112.565 27.6151 107.815C18.9965 103.154 12.3566 96.6019 7.69549 88.1592C3.0344 79.7165 0.703857 69.9985 0.703857 59.0054C0.703857 47.0449 3.16632 36.6674 8.09125 27.8729C13.1042 19.0783 19.9199 12.3505 28.5385 7.68946C37.2451 2.94044 47.051 0.565919 57.9561 0.565919C69.389 0.565919 79.1949 2.76454 87.3738 7.1618C95.6406 11.559 101.885 17.4514 106.106 24.8387C110.327 32.2261 112.438 40.361 112.438 49.2435C112.438 57.2465 111.207 64.0183 108.744 69.5588C106.282 75.0994 102.984 79.2328 98.8506 81.9591C94.8051 84.6854 90.2759 86.0485 85.2631 86.0485C80.602 86.0485 76.8643 85.0371 74.0501 83.0144C71.2358 80.9917 69.5649 78.2214 69.0372 74.7036H68.7734C63.8485 82.2669 57.3845 86.0485 49.3815 86.0485C43.1374 86.0485 38.1685 83.9378 34.4748 79.7165C30.8691 75.4072 29.0662 69.6468 29.0662 62.4353C29.0662 56.2791 30.2095 50.6067 32.496 45.4179C34.8706 40.2291 38.1685 36.1397 42.3899 33.1496C46.6992 30.0715 51.5361 28.5324 56.9008 28.5324C60.6824 28.5324 63.9804 29.3679 66.7946 31.0389C69.6968 32.7098 71.6756 34.9964 72.7309 37.8986H72.9947L73.6543 34.6007C73.8302 33.1056 74.4458 31.9623 75.5012 31.1708C76.5565 30.3793 77.9636 29.9835 79.7225 29.9835C81.4814 29.9835 82.8446 30.4672 83.812 31.4346C84.8673 32.402 85.395 33.7212 85.395 35.3922C85.395 36.1837 85.351 36.7553 85.2631 37.1071L80.7779 62.5672C80.4261 64.414 80.2502 66.3048 80.2502 68.2396C80.2502 70.9659 80.8219 72.9887 81.9651 74.3078C83.1084 75.627 84.9553 76.2866 87.5057 76.2866C89.5284 76.2866 91.5512 75.4072 93.5739 73.6483C95.5966 71.8014 97.3116 68.8553 98.7187 64.8098C100.126 60.7643 100.829 55.5755 100.829 49.2435C100.829 42.032 99.2024 35.568 95.9484 29.8516C92.7824 24.0472 87.9454 19.4741 81.4375 16.1322C75.0175 12.7903 67.1904 11.1193 57.9561 11.1193C49.3375 11.1193 41.5984 13.0101 34.7386 16.7918C27.9669 20.5734 22.6022 26.07 18.6447 33.2815C14.7751 40.493 12.8403 49.0676 12.8403 59.0054C12.8403 68.1517 14.6432 76.1547 18.2489 83.0144C21.8547 89.7862 27.0434 95.0189 33.8152 98.7126C40.587 102.494 48.59 104.385 57.8242 104.385C63.8924 104.385 69.2131 103.638 73.7863 102.142C78.3594 100.735 82.5808 98.5807 86.4503 95.6785C87.6816 94.7111 89.0007 94.2274 90.4079 94.2274C91.9029 94.2274 93.1342 94.7551 94.1016 95.8104C95.0689 96.8658 95.5527 98.141 95.5527 99.636C95.5527 101.571 94.7172 103.198 93.0462 104.517C89.4405 107.596 84.5156 110.102 78.2715 112.037C72.1153 113.972 65.2996 114.939 57.8242 114.939ZM52.0199 76.2866C55.8015 76.2866 59.0555 75.0994 61.7818 72.7248C64.596 70.3503 66.7067 67.2722 68.1138 63.4906C69.6089 59.709 70.3564 55.7514 70.3564 51.618C70.3564 47.3087 69.345 44.0547 67.3223 41.8561C65.2996 39.5695 62.4853 38.4263 58.8796 38.4263C55.2738 38.4263 52.1078 39.6135 49.3815 41.988C46.7431 44.2746 44.7204 47.2647 43.3133 50.9584C41.9941 54.5642 41.3345 58.3458 41.3345 62.3033C41.3345 66.6126 42.3019 70.0425 44.2367 72.5929C46.2594 75.0554 48.8538 76.2866 52.0199 76.2866ZM154.599 28.2686C163.569 28.2686 170.209 30.5112 174.518 34.9964C178.915 39.3937 181.114 46.1215 181.114 55.1798V87.3677C181.114 89.7422 180.411 91.633 179.003 93.0401C177.596 94.3593 175.661 95.0189 173.199 95.0189C170.912 95.0189 169.022 94.3153 167.527 92.9082C166.119 91.5011 165.416 89.6543 165.416 87.3677V84.4655C163.921 87.8954 161.546 90.5777 158.292 92.5125C155.126 94.4473 151.433 95.4147 147.211 95.4147C142.902 95.4147 138.988 94.5352 135.471 92.7763C131.953 91.0174 129.183 88.5989 127.16 85.5208C125.137 82.4428 124.126 79.0129 124.126 75.2313C124.126 70.4822 125.313 66.7446 127.687 64.0183C130.15 61.292 134.107 59.3132 139.56 58.082C145.013 56.8507 152.532 56.2351 162.118 56.2351H165.416V53.201C165.416 48.8917 164.492 45.7697 162.646 43.8349C160.799 41.8121 157.809 40.8008 153.675 40.8008C151.125 40.8008 148.53 41.1965 145.892 41.988C143.254 42.6916 140.132 43.7469 136.526 45.1541C134.239 46.2973 132.568 46.869 131.513 46.869C129.93 46.869 128.611 46.2973 127.556 45.1541C126.588 44.0108 126.104 42.5157 126.104 40.6689C126.104 39.1738 126.456 37.8986 127.16 36.8433C127.951 35.7 129.226 34.6446 130.985 33.6772C134.063 32.0063 137.713 30.6871 141.935 29.7197C146.244 28.7523 150.465 28.2686 154.599 28.2686ZM150.509 83.5421C154.906 83.5421 158.468 82.091 161.195 79.1888C164.009 76.1987 165.416 72.3731 165.416 67.712V64.9417H163.041C157.149 64.9417 152.576 65.2055 149.322 65.7332C146.068 66.2609 143.737 67.1843 142.33 68.5035C140.923 69.8226 140.22 71.6255 140.22 73.9121C140.22 76.7263 141.187 79.0569 143.122 80.9037C145.145 82.6626 147.607 83.5421 150.509 83.5421ZM235.337 28.2686C243.076 28.2686 248.836 30.4672 252.618 34.8645C256.399 39.2617 258.29 45.9016 258.29 54.784V87.2358C258.29 89.6982 257.543 91.633 256.048 93.0401C254.641 94.4473 252.662 95.1508 250.111 95.1508C247.561 95.1508 245.538 94.4473 244.043 93.0401C242.548 91.633 241.801 89.6982 241.801 87.2358V55.7075C241.801 50.6946 240.833 47.0449 238.898 44.7583C237.052 42.4717 234.105 41.3284 230.06 41.3284C225.311 41.3284 221.485 42.8235 218.583 45.8136C215.769 48.8038 214.362 52.8053 214.362 57.8181V87.2358C214.362 89.6982 213.614 91.633 212.119 93.0401C210.624 94.4473 208.601 95.1508 206.051 95.1508C203.501 95.1508 201.478 94.4473 199.983 93.0401C198.576 91.633 197.872 89.6982 197.872 87.2358V36.1837C197.872 33.8971 198.62 32.0502 200.115 30.6431C201.61 29.236 203.632 28.5324 206.183 28.5324C208.469 28.5324 210.316 29.236 211.723 30.6431C213.218 31.9623 213.966 33.7212 213.966 35.9198V39.4816C216.165 35.8759 219.111 33.1056 222.804 31.1708C226.498 29.236 230.676 28.2686 235.337 28.2686ZM303.006 28.2686C311.976 28.2686 318.616 30.5112 322.925 34.9964C327.323 39.3937 329.521 46.1215 329.521 55.1798V87.3677C329.521 89.7422 328.818 91.633 327.411 93.0401C326.004 94.3593 324.069 95.0189 321.606 95.0189C319.32 95.0189 317.429 94.3153 315.934 92.9082C314.527 91.5011 313.823 89.6543 313.823 87.3677V84.4655C312.328 87.8954 309.954 90.5777 306.7 92.5125C303.534 94.4473 299.84 95.4147 295.619 95.4147C291.309 95.4147 287.396 94.5352 283.878 92.7763C280.36 91.0174 277.59 88.5989 275.567 85.5208C273.544 82.4428 272.533 79.0129 272.533 75.2313C272.533 70.4822 273.72 66.7446 276.095 64.0183C278.557 61.292 282.515 59.3132 287.967 58.082C293.42 56.8507 300.939 56.2351 310.525 56.2351H313.823V53.201C313.823 48.8917 312.9 45.7697 311.053 43.8349C309.206 41.8121 306.216 40.8008 302.083 40.8008C299.532 40.8008 296.938 41.1965 294.299 41.988C291.661 42.6916 288.539 43.7469 284.933 45.1541C282.647 46.2973 280.976 46.869 279.92 46.869C278.337 46.869 277.018 46.2973 275.963 45.1541C274.995 44.0108 274.512 42.5157 274.512 40.6689C274.512 39.1738 274.864 37.8986 275.567 36.8433C276.359 35.7 277.634 34.6446 279.393 33.6772C282.471 32.0063 286.12 30.6871 290.342 29.7197C294.651 28.7523 298.872 28.2686 303.006 28.2686ZM298.916 83.5421C303.314 83.5421 306.876 82.091 309.602 79.1888C312.416 76.1987 313.823 72.3731 313.823 67.712V64.9417H311.449C305.556 64.9417 300.983 65.2055 297.729 65.7332C294.475 66.2609 292.145 67.1843 290.738 68.5035C289.33 69.8226 288.627 71.6255 288.627 73.9121C288.627 76.7263 289.594 79.0569 291.529 80.9037C293.552 82.6626 296.014 83.5421 298.916 83.5421ZM369.629 95.4147C360.043 95.4147 352.304 93.5238 346.411 89.7422C343.597 88.0712 342.19 85.6967 342.19 82.6187C342.19 80.8598 342.674 79.4526 343.641 78.3973C344.608 77.254 345.796 76.6824 347.203 76.6824C348.698 76.6824 350.764 77.3859 353.403 78.793C356.217 80.1122 358.768 81.1236 361.054 81.8271C363.429 82.5307 366.419 82.8825 370.024 82.8825C373.718 82.8825 376.576 82.2669 378.599 81.0356C380.71 79.8044 381.765 78.0895 381.765 75.8909C381.765 74.3958 381.325 73.2085 380.446 72.3291C379.654 71.4496 378.159 70.6581 375.961 69.9546C373.85 69.1631 370.596 68.2836 366.199 67.3162C358.372 65.7332 352.743 63.4906 349.313 60.5884C345.971 57.6862 344.301 53.6847 344.301 48.5839C344.301 44.7143 345.444 41.2405 347.73 38.1624C350.017 34.9964 353.139 32.5779 357.097 30.907C361.142 29.1481 365.715 28.2686 370.816 28.2686C374.51 28.2686 378.071 28.7523 381.501 29.7197C384.931 30.5991 388.009 31.9183 390.736 33.6772C393.55 35.4361 394.957 37.7667 394.957 40.6689C394.957 42.4278 394.473 43.9228 393.506 45.1541C392.538 46.2973 391.351 46.869 389.944 46.869C388.977 46.869 388.009 46.6931 387.042 46.3413C386.162 45.9016 385.019 45.286 383.612 44.4945C381.062 43.1753 378.863 42.2079 377.016 41.5923C375.169 40.8887 372.883 40.5369 370.156 40.5369C366.902 40.5369 364.308 41.1965 362.373 42.5157C360.526 43.8349 359.603 45.6378 359.603 47.9243C359.603 50.123 360.57 51.7939 362.505 52.9372C364.44 54.0805 368.178 55.2238 373.718 56.3671C379.611 57.5983 384.228 59.0054 387.569 60.5884C390.911 62.1714 393.286 64.1502 394.693 66.5247C396.188 68.8992 396.936 71.9333 396.936 75.627C396.936 81.6073 394.429 86.4003 389.416 90.006C384.491 93.6118 377.896 95.4147 369.629 95.4147ZM467.426 80.6399C472.703 80.6399 475.341 82.8825 475.341 87.3677C475.341 92.0288 472.703 94.3593 467.426 94.3593H417.297C415.011 94.3593 413.208 93.6997 411.889 92.3806C410.569 90.9734 409.91 89.2585 409.91 87.2358C409.91 84.5974 410.921 82.2229 412.944 80.1122L443.021 47.7924C446.715 43.7469 449.397 40.0532 451.068 36.7113C452.827 33.2815 453.706 29.8956 453.706 26.5537C453.706 22.4203 452.519 19.2542 450.145 17.0556C447.77 14.857 444.384 13.7577 439.987 13.7577C436.381 13.7577 432.863 14.4612 429.434 15.8684C426.092 17.1875 422.706 19.0344 419.276 21.4089C418.396 22.0245 417.517 22.5522 416.638 22.9919C415.758 23.3437 414.879 23.5196 413.999 23.5196C412.504 23.5196 411.185 22.816 410.042 21.4089C408.986 20.0018 408.459 18.3308 408.459 16.396C408.459 15.0768 408.679 13.9336 409.118 12.9662C409.646 11.9988 410.437 11.0753 411.493 10.1959C415.362 7.11783 419.892 4.69934 425.08 2.94044C430.269 1.09359 435.458 0.170166 440.647 0.170166C449.705 0.170166 456.916 2.45674 462.281 7.02988C467.734 11.603 470.46 17.7592 470.46 25.4983C470.46 30.863 469.317 35.9198 467.03 40.6689C464.743 45.3299 460.874 50.5627 455.421 56.3671L432.6 80.6399H467.426ZM550.216 62.9629C552.855 62.9629 554.833 63.5346 556.152 64.6779C557.472 65.8212 558.131 67.4481 558.131 69.5588C558.131 73.9561 555.493 76.1547 550.216 76.1547H543.488V86.5762C543.488 89.3025 542.697 91.4132 541.114 92.9082C539.619 94.4033 537.64 95.1508 535.178 95.1508C532.715 95.1508 530.692 94.4033 529.109 92.9082C527.614 91.4132 526.867 89.3025 526.867 86.5762V76.1547H492.304C489.93 76.1547 488.083 75.4951 486.764 74.1759C485.445 72.7688 484.785 71.0539 484.785 69.0311C484.785 66.9205 485.489 64.8977 486.896 62.9629L527.658 4.39153C528.538 3.1603 529.637 2.23688 530.956 1.62126C532.275 0.917699 533.639 0.565919 535.046 0.565919C537.332 0.565919 539.311 1.31345 540.982 2.80852C542.653 4.30358 543.488 6.41427 543.488 9.14055V62.9629H550.216ZM502.33 62.9629H526.867V27.4771L502.33 62.9629ZM626.413 1.35742C628.699 1.35742 630.458 2.01701 631.69 3.33619C632.921 4.56742 633.536 6.1944 633.536 8.21713C633.536 10.2399 632.921 12.3505 631.69 14.5492L589.608 90.9295C587.849 93.9196 585.43 95.4147 582.352 95.4147C580.242 95.4147 578.351 94.7111 576.68 93.304C575.097 91.8089 574.305 90.0061 574.305 87.8954C574.305 86.4003 574.745 84.9052 575.625 83.4102L613.485 15.0768H573.646C568.369 15.0768 565.731 12.8342 565.731 8.34905C565.731 3.68797 568.369 1.35742 573.646 1.35742H626.413ZM675.698 0.170166C687.483 0.170166 696.541 4.17167 702.873 12.1747C709.293 20.0897 712.503 31.4346 712.503 46.2094C712.503 56.3231 711.008 65.1176 708.018 72.5929C705.028 79.9803 700.719 85.6528 695.09 89.6103C689.55 93.5678 682.998 95.5466 675.435 95.5466C670.422 95.5466 665.365 94.6671 660.264 92.9082C655.251 91.0614 650.986 88.5989 647.468 85.5208C646.325 84.5535 645.489 83.63 644.962 82.7506C644.522 81.7832 644.302 80.6399 644.302 79.3207C644.302 77.3859 644.83 75.7589 645.885 74.4398C647.028 73.0326 648.347 72.3291 649.843 72.3291C650.722 72.3291 651.557 72.505 652.349 72.8568C653.141 73.1206 654.108 73.6043 655.251 74.3078C662.551 79.4087 669.059 81.9591 674.775 81.9591C681.195 81.9591 686.252 79.0129 689.945 73.1206C693.639 67.1403 695.574 58.7855 695.75 48.0562C693.727 52.0138 690.693 55.1798 686.648 57.5543C682.602 59.8409 678.073 60.9842 673.06 60.9842C667.52 60.9842 662.595 59.7529 658.285 57.2905C653.976 54.7401 650.59 51.2223 648.128 46.7371C645.753 42.1639 644.566 36.9752 644.566 31.1708C644.566 25.1905 645.885 19.8699 648.523 15.2088C651.25 10.4597 654.943 6.76605 659.604 4.12769C664.353 1.48934 669.718 0.170166 675.698 0.170166ZM676.622 47.5286C681.547 47.5286 685.504 45.9895 688.494 42.9115C691.573 39.7454 693.112 35.656 693.112 30.6431C693.112 25.5423 691.573 21.4529 688.494 18.3748C685.504 15.2088 681.547 13.6258 676.622 13.6258C671.785 13.6258 667.915 15.2088 665.013 18.3748C662.111 21.4529 660.66 25.5423 660.66 30.6431C660.66 35.7439 662.111 39.8334 665.013 42.9115C667.915 45.9895 671.785 47.5286 676.622 47.5286Z" fill="black"/>
</svg>
